<?xml version="1.0" encoding="UTF-8" standalone="no"?>
<!-- Created with Inkscape (http://www.inkscape.org/) -->

<svg
   xmlns:dc="http://purl.org/dc/elements/1.1/"
   xmlns:cc="http://creativecommons.org/ns#"
   xmlns:rdf="http://www.w3.org/1999/02/22-rdf-syntax-ns#"
   xmlns:svg="http://www.w3.org/2000/svg"
   xmlns="http://www.w3.org/2000/svg"
   xmlns:sodipodi="http://sodipodi.sourceforge.net/DTD/sodipodi-0.dtd"
   xmlns:inkscape="http://www.inkscape.org/namespaces/inkscape"
   width="744.09448819"
   height="1052.3622047"
   id="svg2"
   version="1.1"
   inkscape:version="0.48.4 r9939"
   sodipodi:docname="descspace.svg">
  <defs
     id="defs4">
    <filter
       inkscape:collect="always"
       id="filter4142"
       x="-0.108"
       width="1.216"
       y="-0.108"
       height="1.216">
      <feGaussianBlur
         inkscape:collect="always"
         stdDeviation="0.41785714"
         id="feGaussianBlur4144" />
    </filter>
    <filter
       color-interpolation-filters="sRGB"
       inkscape:collect="always"
       id="filter4142-8"
       x="-0.108"
       width="1.216"
       y="-0.108"
       height="1.216">
      <feGaussianBlur
         inkscape:collect="always"
         stdDeviation="0.41785714"
         id="feGaussianBlur4144-5" />
    </filter>
    <filter
       color-interpolation-filters="sRGB"
       inkscape:collect="always"
       id="filter4142-8-5"
       x="-0.108"
       width="1.216"
       y="-0.108"
       height="1.216">
      <feGaussianBlur
         inkscape:collect="always"
         stdDeviation="0.41785714"
         id="feGaussianBlur4144-5-7" />
    </filter>
    <filter
       color-interpolation-filters="sRGB"
       inkscape:collect="always"
       id="filter4142-8-5-6"
       x="-0.108"
       width="1.216"
       y="-0.108"
       height="1.216">
      <feGaussianBlur
         inkscape:collect="always"
         stdDeviation="0.41785714"
         id="feGaussianBlur4144-5-7-2" />
    </filter>
    <filter
       color-interpolation-filters="sRGB"
       inkscape:collect="always"
       id="filter4142-8-5-6-9"
       x="-0.108"
       width="1.216"
       y="-0.108"
       height="1.216">
      <feGaussianBlur
         inkscape:collect="always"
         stdDeviation="0.41785714"
         id="feGaussianBlur4144-5-7-2-1" />
    </filter>
    <filter
       color-interpolation-filters="sRGB"
       inkscape:collect="always"
       id="filter4142-8-5-6-6"
       x="-0.108"
       width="1.216"
       y="-0.108"
       height="1.216">
      <feGaussianBlur
         inkscape:collect="always"
         stdDeviation="0.41785714"
         id="feGaussianBlur4144-5-7-2-4" />
    </filter>
    <filter
       inkscape:collect="always"
       id="filter4282">
      <feGaussianBlur
         inkscape:collect="always"
         stdDeviation="0.51785713"
         id="feGaussianBlur4284" />
    </filter>
    <filter
       color-interpolation-filters="sRGB"
       inkscape:collect="always"
       id="filter4142-8-5-3"
       x="-0.108"
       width="1.216"
       y="-0.108"
       height="1.216">
      <feGaussianBlur
         inkscape:collect="always"
         stdDeviation="0.41785714"
         id="feGaussianBlur4144-5-7-9" />
    </filter>
    <filter
       color-interpolation-filters="sRGB"
       inkscape:collect="always"
       id="filter4142-8-5-3-2"
       x="-0.108"
       width="1.216"
       y="-0.108"
       height="1.216">
      <feGaussianBlur
         inkscape:collect="always"
         stdDeviation="0.41785714"
         id="feGaussianBlur4144-5-7-9-8" />
    </filter>
    <filter
       color-interpolation-filters="sRGB"
       inkscape:collect="always"
       id="filter4142-8-5-3-20"
       x="-0.108"
       width="1.216"
       y="-0.108"
       height="1.216">
      <feGaussianBlur
         inkscape:collect="always"
         stdDeviation="0.41785714"
         id="feGaussianBlur4144-5-7-9-2" />
    </filter>
    <filter
       color-interpolation-filters="sRGB"
       inkscape:collect="always"
       id="filter4142-8-5-3-9"
       x="-0.108"
       width="1.216"
       y="-0.108"
       height="1.216">
      <feGaussianBlur
         inkscape:collect="always"
         stdDeviation="0.41785714"
         id="feGaussianBlur4144-5-7-9-0" />
    </filter>
    <filter
       color-interpolation-filters="sRGB"
       inkscape:collect="always"
       id="filter4142-8-5-3-5"
       x="-0.108"
       width="1.216"
       y="-0.108"
       height="1.216">
      <feGaussianBlur
         inkscape:collect="always"
         stdDeviation="0.41785714"
         id="feGaussianBlur4144-5-7-9-6" />
    </filter>
    <filter
       color-interpolation-filters="sRGB"
       inkscape:collect="always"
       id="filter4142-8-5-3-3"
       x="-0.108"
       width="1.216"
       y="-0.108"
       height="1.216">
      <feGaussianBlur
         inkscape:collect="always"
         stdDeviation="0.41785714"
         id="feGaussianBlur4144-5-7-9-3" />
    </filter>
  </defs>
  <sodipodi:namedview
     id="base"
     pagecolor="#ffffff"
     bordercolor="#666666"
     borderopacity="1.0"
     inkscape:pageopacity="0.0"
     inkscape:pageshadow="2"
     inkscape:zoom="1"
     inkscape:cx="550.95684"
     inkscape:cy="864.94637"
     inkscape:document-units="px"
     inkscape:current-layer="layer1"
     showgrid="false"
     inkscape:window-width="1680"
     inkscape:window-height="995"
     inkscape:window-x="-2"
     inkscape:window-y="-3"
     inkscape:window-maximized="1" />
  <metadata
     id="metadata7">
    <rdf:RDF>
      <cc:Work
         rdf:about="">
        <dc:format>image/svg+xml</dc:format>
        <dc:type
           rdf:resource="http://purl.org/dc/dcmitype/StillImage" />
        <dc:title></dc:title>
      </cc:Work>
    </rdf:RDF>
  </metadata>
  <g
     inkscape:label="Layer 1"
     inkscape:groupmode="layer"
     id="layer1">
    <rect
       style="fill:#ffffff;fill-opacity:1;stroke:#000000;stroke-width:5;stroke-linejoin:round;stroke-miterlimit:4;stroke-opacity:1;stroke-dasharray:none;filter:url(#filter4282)"
       id="rect4062"
       width="207.14285"
       height="207.14285"
       x="332.85715"
       y="94.862183"
       ry="36.785713"
       transform="matrix(3,0,0,3,-872.85715,-396.86722)" />
    <path
       sodipodi:type="arc"
       style="fill:#ff99fe;fill-opacity:1;stroke:#000000;stroke-width:2;stroke-linejoin:round;stroke-miterlimit:4;stroke-opacity:1;stroke-dasharray:none;filter:url(#filter4142)"
       id="path4092"
       sodipodi:cx="155.35715"
       sodipodi:cy="348.43362"
       sodipodi:rx="4.6428571"
       sodipodi:ry="4.6428571"
       d="m 160,348.43362 a 4.6428571,4.6428571 0 1 1 -9.28571,0 4.6428571,4.6428571 0 1 1 9.28571,0 z"
       transform="matrix(3,0,0,3,-242.85715,-1026.8672)" />
    <path
       transform="matrix(3,0,0,3,-208.57144,-1062.2244)"
       sodipodi:type="arc"
       style="fill:#ff99fe;fill-opacity:1;stroke:#000000;stroke-width:2;stroke-linejoin:round;stroke-miterlimit:4;stroke-opacity:1;stroke-dasharray:none;filter:url(#filter4142-8)"
       id="path4092-7"
       sodipodi:cx="155.35715"
       sodipodi:cy="348.43362"
       sodipodi:rx="4.6428571"
       sodipodi:ry="4.6428571"
       d="m 160,348.43362 a 4.6428571,4.6428571 0 1 1 -9.28571,0 4.6428571,4.6428571 0 1 1 9.28571,0 z" />
    <path
       transform="matrix(3,0,0,3,-200.00002,-1017.2244)"
       sodipodi:type="arc"
       style="fill:#ff99fe;fill-opacity:1;stroke:#000000;stroke-width:2;stroke-linejoin:round;stroke-miterlimit:4;stroke-opacity:1;stroke-dasharray:none;filter:url(#filter4142-8-5)"
       id="path4092-7-5"
       sodipodi:cx="155.35715"
       sodipodi:cy="348.43362"
       sodipodi:rx="4.6428571"
       sodipodi:ry="4.6428571"
       d="m 160,348.43362 a 4.6428571,4.6428571 0 1 1 -9.28571,0 4.6428571,4.6428571 0 1 1 9.28571,0 z" />
    <path
       transform="matrix(3,0,0,3,-20.000017,-675.4387)"
       sodipodi:type="arc"
       style="fill:#0099ff;fill-opacity:1;stroke:#000000;stroke-width:2;stroke-linejoin:round;stroke-miterlimit:4;stroke-opacity:1;stroke-dasharray:none;filter:url(#filter4142-8-5-6)"
       id="path4092-7-5-3"
       sodipodi:cx="155.35715"
       sodipodi:cy="348.43362"
       sodipodi:rx="4.6428571"
       sodipodi:ry="4.6428571"
       d="m 160,348.43362 a 4.6428571,4.6428571 0 1 1 -9.28571,0 4.6428571,4.6428571 0 1 1 9.28571,0 z" />
    <path
       transform="matrix(3,0,0,3,-9.2857272,-717.22441)"
       sodipodi:type="arc"
       style="fill:#0099ff;fill-opacity:1;stroke:#000000;stroke-width:2;stroke-linejoin:round;stroke-miterlimit:4;stroke-opacity:1;stroke-dasharray:none;filter:url(#filter4142-8-5-6-9)"
       id="path4092-7-5-3-4"
       sodipodi:cx="155.35715"
       sodipodi:cy="348.43362"
       sodipodi:rx="4.6428571"
       sodipodi:ry="4.6428571"
       d="m 160,348.43362 a 4.6428571,4.6428571 0 1 1 -9.28571,0 4.6428571,4.6428571 0 1 1 9.28571,0 z" />
    <path
       transform="matrix(3,0,0,3,19.642853,-655.08154)"
       sodipodi:type="arc"
       style="fill:#0099ff;fill-opacity:1;stroke:#000000;stroke-width:2;stroke-linejoin:round;stroke-miterlimit:4;stroke-opacity:1;stroke-dasharray:none;filter:url(#filter4142-8-5-6-6)"
       id="path4092-7-5-3-6"
       sodipodi:cx="155.35715"
       sodipodi:cy="348.43362"
       sodipodi:rx="4.6428571"
       sodipodi:ry="4.6428571"
       d="m 160,348.43362 a 4.6428571,4.6428571 0 1 1 -9.28571,0 4.6428571,4.6428571 0 1 1 9.28571,0 z" />
    <path
       transform="matrix(3,0,0,3,87.142853,-1003.0815)"
       sodipodi:type="arc"
       style="fill:#ffc000;fill-opacity:1;stroke:#000000;stroke-width:2;stroke-linejoin:round;stroke-miterlimit:4;stroke-opacity:1;stroke-dasharray:none;filter:url(#filter4142-8-5-3)"
       id="path4092-7-5-6"
       sodipodi:cx="155.35715"
       sodipodi:cy="348.43362"
       sodipodi:rx="4.6428571"
       sodipodi:ry="4.6428571"
       d="m 160,348.43362 a 4.6428571,4.6428571 0 1 1 -9.28571,0 4.6428571,4.6428571 0 1 1 9.28571,0 z" />
    <path
       transform="matrix(3,0,0,3,126.99998,-1027.9387)"
       sodipodi:type="arc"
       style="fill:#ffc000;fill-opacity:1;stroke:#000000;stroke-width:2;stroke-linejoin:round;stroke-miterlimit:4;stroke-opacity:1;stroke-dasharray:none;filter:url(#filter4142-8-5-3-2)"
       id="path4092-7-5-6-3"
       sodipodi:cx="155.35715"
       sodipodi:cy="348.43362"
       sodipodi:rx="4.6428571"
       sodipodi:ry="4.6428571"
       d="m 160,348.43362 a 4.6428571,4.6428571 0 1 1 -9.28571,0 4.6428571,4.6428571 0 1 1 9.28571,0 z" />
    <path
       transform="matrix(3,0,0,3,90.999983,-1057.9387)"
       sodipodi:type="arc"
       style="fill:#ffc000;fill-opacity:1;stroke:#000000;stroke-width:2;stroke-linejoin:round;stroke-miterlimit:4;stroke-opacity:1;stroke-dasharray:none;filter:url(#filter4142-8-5-3-20)"
       id="path4092-7-5-6-6"
       sodipodi:cx="155.35715"
       sodipodi:cy="348.43362"
       sodipodi:rx="4.6428571"
       sodipodi:ry="4.6428571"
       d="m 160,348.43362 a 4.6428571,4.6428571 0 1 1 -9.28571,0 4.6428571,4.6428571 0 1 1 9.28571,0 z" />
    <path
       transform="matrix(3,0,0,3,144.99998,-1069.9387)"
       sodipodi:type="arc"
       style="fill:#ffc000;fill-opacity:1;stroke:#000000;stroke-width:2;stroke-linejoin:round;stroke-miterlimit:4;stroke-opacity:1;stroke-dasharray:none;filter:url(#filter4142-8-5-3-9)"
       id="path4092-7-5-6-4"
       sodipodi:cx="155.35715"
       sodipodi:cy="348.43362"
       sodipodi:rx="4.6428571"
       sodipodi:ry="4.6428571"
       d="m 160,348.43362 a 4.6428571,4.6428571 0 1 1 -9.28571,0 4.6428571,4.6428571 0 1 1 9.28571,0 z" />
    <path
       transform="matrix(3,0,0,3,132.99998,-985.9387)"
       sodipodi:type="arc"
       style="fill:#ffc000;fill-opacity:1;stroke:#000000;stroke-width:2;stroke-linejoin:round;stroke-miterlimit:4;stroke-opacity:1;stroke-dasharray:none;filter:url(#filter4142-8-5-3-5)"
       id="path4092-7-5-6-9"
       sodipodi:cx="155.35715"
       sodipodi:cy="348.43362"
       sodipodi:rx="4.6428571"
       sodipodi:ry="4.6428571"
       d="m 160,348.43362 a 4.6428571,4.6428571 0 1 1 -9.28571,0 4.6428571,4.6428571 0 1 1 9.28571,0 z" />
    <path
       transform="matrix(3,0,0,3,168.99998,-1009.9387)"
       sodipodi:type="arc"
       style="fill:#ffc000;fill-opacity:1;stroke:#000000;stroke-width:2;stroke-linejoin:round;stroke-miterlimit:4;stroke-opacity:1;stroke-dasharray:none;filter:url(#filter4142-8-5-3-3)"
       id="path4092-7-5-6-7"
       sodipodi:cx="155.35715"
       sodipodi:cy="348.43362"
       sodipodi:rx="4.6428571"
       sodipodi:ry="4.6428571"
       d="m 160,348.43362 a 4.6428571,4.6428571 0 1 1 -9.28571,0 4.6428571,4.6428571 0 1 1 9.28571,0 z" />
  </g>
</svg>
